PathFileType	4	(X/Y/Z)	/Users/itak/Documents/Research/Walk-IL/dataset/trc/00428_00167.trc
DataRate	CameraRate	NumFrames	NumMarkers	Units	OrigDataRate	OrigDataStartFrame	OrigNumFrames
100.000000	100.000000	4	53	mm	100.000000	491	786
Frame#	Time	RPSI			LPSI			L3			STRN			T10			C7			CLAV			RBAK			LBAK			LSHO			LUPA			LAEL			LAOL			LWTS			LWPS			LFRA			LIFD			LHPS			LHTS			RSHO			RUPA			RAEL			RAOL			RWTS			RWPS			RFRA			RIFD			RHTS			RHPS			RBHD			LFHD			RFHD			LBHD			LHIP			RHIP			RASI			LASI			LKNE			LTHI			LANK			LTIP			LTOE			LMT1			LMT5			LHEE			RKNE			RTHI			RANK			RTIP			RTOE			RMT1			RMT5			RHEE			
		X1	Y1	Z1	X2	Y2	Z2	X3	Y3	Z3	X4	Y4	Z4	X5	Y5	Z5	X6	Y6	Z6	X7	Y7	Z7	X8	Y8	Z8	X9	Y9	Z9	X10	Y10	Z10	X11	Y11	Z11	X12	Y12	Z12	X13	Y13	Z13	X14	Y14	Z14	X15	Y15	Z15	X16	Y16	Z16	X17	Y17	Z17	X18	Y18	Z18	X19	Y19	Z19	X20	Y20	Z20	X21	Y21	Z21	X22	Y22	Z22	X23	Y23	Z23	X24	Y24	Z24	X25	Y25	Z25	X26	Y26	Z26	X27	Y27	Z27	X28	Y28	Z28	X29	Y29	Z29	X30	Y30	Z30	X31	Y31	Z31	X32	Y32	Z32	X33	Y33	Z33	X34	Y34	Z34	X35	Y35	Z35	X36	Y36	Z36	X37	Y37	Z37	X38	Y38	Z38	X39	Y39	Z39	X40	Y40	Z40	X41	Y41	Z41	X42	Y42	Z42	X43	Y43	Z43	X44	Y44	Z44	X45	Y45	Z45	X46	Y46	Z46	X47	Y47	Z47	X48	Y48	Z48	X49	Y49	Z49	X50	Y50	Z50	X51	Y51	Z51	X52	Y52	Z52	X53	Y53	Z53	

492	4.91	413.9336547851562	940.5084228515625	660.4525146484375	500.8804931640625	931.4102172851562	547.1692504882812	447.4284057617188	1036.378662109375	628.3295288085938	668.2637939453125	1233.318359375	767.8753051757812	426.836669921875	1159.818603515625	617.387939453125	468.4281616210938	1428.676025390625	662.8174438476562	635.9430541992188	1345.765502929688	744.22705078125	367.7565612792969	1307.916748046875	715.6757202148438	495.3240966796875	1382.096923828125	559.006591796875	625.504638671875	1400.38037109375	547.9480590820312	679.0665893554688	1283.418212890625	463.371826171875	742.4509887695312	1076.426879882812	457.7442932128906	645.5510864257812	1040.511840820312	468.1000671386719	833.3995971679688	929.374755859375	592.8864135742188	840.7447509765625	891.4359741210938	529.5535278320312	787.9315185546875	1003.111206054688	484.0669555664062	891.879150390625	782.2378540039062	650.9786376953125	871.1026611328125	822.4461059570312	562.21484375	879.0572509765625	857.2266845703125	623.660888671875	452.2713623046875	1395.166137695312	839.5108032226562	407.0986633300781	1331.58837890625	901.56884765625	431.4385070800781	1047.978393554688	975.2485961914062	401.3573913574219	1019.222412109375	920.403076171875	591.3701782226562	886.212646484375	986.58154296875	517.7213745117188	849.4800415039062	1016.190673828125	446.7469177246094	992.5347900390625	989.9366455078125	639.5602416992188	737.0172729492188	1012.427551269531	630.4974365234375	797.5374145507812	1015.684020996094	560.2633666992188	773.3536987304688	1030.528930664062	495.4198303222656	1624.269165039062	774.73583984375	691.0458984375	1643.38623046875	711.5107421875	624.1681518554688	1646.00390625	823.7566528320312	574.0858764648438	1625.509521484375	614.8746337890625	696.8724975585938	845.3342895507812	548.0584716796875	419.862060546875	836.6356201171875	842.7394409179688	540.616455078125	878.0001831054688	858.1566162109375	704.518310546875	891.5921630859375	667.7075805664062	838.1869506835938	466.4248962402344	684.386962890625	809.5630493164062	616.439697265625	646.9159545898438	892.8745727539062	51.33967590332031	695.673095703125	878.2743530273438	314.5972595214844	690.3617553710938	1004.548828125	118.8692245483398	885.2260131835938	933.5862426757812	96.18540954589844	862.3842163085938	1003.143676757812	95.63458251953125	776.9324951171875	821.4634399414062	38.18004989624023	697.4968872070312	448.4878540039062	441.9978942871094	775.3264770507812	454.5333557128906	696.7029418945312	855.7078247070312	379.3544921875	40.79494857788086	676.266845703125	431.2621154785156	295.7208557128906	753.45263671875	591.3547973632812	42.61174774169922	738.3521118164062	550.326904296875	44.56393814086914	677.7540893554688	483.6439208984375	46.46063232421875	761.1809692382812	342.2831420898438	31.29557037353516	604.071044921875	
493	4.92	419.0229187011719	939.6331176757812	662.6961669921875	506.3489685058594	930.4527587890625	549.7969970703125	452.5702209472656	1035.284301757812	630.7198486328125	673.166259765625	1232.241455078125	770.7863159179688	432.1037902832031	1158.748168945312	619.598876953125	473.7126159667969	1427.58349609375	665.0742797851562	640.9639892578125	1344.674682617188	746.9033203125	372.9188537597656	1306.939697265625	717.5941162109375	500.83984375	1380.808837890625	561.3709106445312	630.9909057617188	1398.980346679688	550.4163208007812	684.2010498046875	1281.698364257812	465.9841613769531	746.1624755859375	1073.68359375	460.0958862304688	648.7518310546875	1039.451904296875	470.9425964355469	834.864990234375	921.1382446289062	590.8931884765625	840.2965698242188	884.542724609375	526.5740356445312	790.1129760742188	998.6248168945312	484.3971252441406	890.2769165039062	771.197265625	644.4779663085938	869.2349853515625	814.0836181640625	557.1028442382812	878.9854736328125	847.0955200195312	619.20947265625	457.0284118652344	1394.014038085938	841.8358154296875	411.4464416503906	1330.260009765625	903.5313720703125	433.8552551269531	1045.74658203125	975.12109375	403.747802734375	1018.166137695312	919.5501708984375	590.2571411132812	880.4871826171875	985.74951171875	515.5659790039062	845.046142578125	1014.333557128906	447.8784790039062	989.8273315429688	989.227783203125	634.8526611328125	729.9385986328125	1010.201049804688	627.1517944335938	790.6100463867188	1013.988830566406	556.2709350585938	767.8286743164062	1028.128295898438	500.5444641113281	1623.31787109375	776.7293701171875	696.2325439453125	1642.294799804688	713.6286010742188	629.273681640625	1645.150756835938	825.8326416015625	579.372802734375	1624.26904296875	616.8779296875	702.3929443359375	844.6754150390625	551.45361328125	423.7548522949219	835.7720336914062	844.9519653320312	544.6073608398438	876.9483642578125	860.9779052734375	709.4668579101562	890.8203735351562	671.3893432617188	844.5537109375	467.0476989746094	689.4923706054688	815.0478515625	616.3538208007812	651.1119384765625	907.5989990234375	53.52560043334961	707.623291015625	887.7831420898438	316.5011596679688	698.1104736328125	1016.893920898438	124.356071472168	897.3201293945312	946.4364624023438	100.6043548583984	874.1062622070312	1016.68359375	100.2035217285156	789.2137451171875	836.3668212890625	39.47406005859375	709.09228515625	451.2520751953125	441.2816467285156	776.7976684570312	458.4535217285156	695.730712890625	857.4124755859375	379.4315795898438	40.93053436279297	676.1862182617188	433.1187133789062	295.1564636230469	754.3287963867188	591.3848876953125	42.49855804443359	738.4996948242188	550.4021606445312	44.44489669799805	677.7072143554688	483.6468200683594	46.47745132446289	761.1959228515625	342.2965393066406	31.54067802429199	603.988037109375	
494	4.93	424.1914672851562	938.7011108398438	664.9510498046875	511.8808898925781	929.4347534179688	552.4338989257812	457.7525024414062	1034.155883789062	633.1053466796875	678.1571655273438	1231.109375	773.7432861328125	437.4533996582031	1157.639038085938	621.8189086914062	479.1240539550781	1426.456665039062	667.3426513671875	646.0816040039062	1343.531494140625	749.6217651367188	378.1956481933594	1305.92578125	719.5230102539062	506.4789733886719	1379.475463867188	563.7661743164062	636.6004028320312	1397.529541015625	552.9303588867188	689.5001831054688	1279.93408203125	468.6564636230469	749.96826171875	1070.917114257812	462.4913330078125	652.0405883789062	1038.384155273438	473.8517456054688	836.1002197265625	912.7164306640625	588.56201171875	839.5548706054688	877.6556396484375	523.2554321289062	792.2435913085938	994.1185913085938	484.6346740722656	888.1323852539062	759.998046875	637.2771606445312	866.8978271484375	805.7333374023438	551.477294921875	878.5081787109375	836.7642211914062	614.2208251953125	461.8796997070312	1392.818481445312	844.18994140625	415.8952941894531	1328.905029296875	905.5200805664062	436.318115234375	1043.515502929688	974.9968872070312	406.1521911621094	1017.152954101562	918.7127075195312	588.8875122070312	874.6531982421875	984.8369140625	513.1234130859375	840.6334838867188	1012.383361816406	448.9585571289062	987.1514892578125	988.5006713867188	629.6354370117188	722.7816162109375	1007.791809082031	623.380126953125	783.5652465820312	1012.138061523438	551.8941650390625	762.34423828125	1025.6064453125	505.7460327148438	1622.314697265625	778.7376708984375	701.5147094726562	1641.171508789062	715.7697143554688	634.4490966796875	1644.268188476562	827.9407958984375	584.7532348632812	1622.976440429688	618.8986206054688	707.9742431640625	843.9813232421875	554.8579711914062	427.7138366699219	834.8694458007812	847.17919921875	548.677001953125	875.859375	863.7990112304688	714.4772338867188	890.01123046875	675.0800170898438	850.9798583984375	467.6149597167969	694.5401611328125	820.6488037109375	616.2412109375	655.3110961914062	921.5615844726562	55.77556991577148	719.0646362304688	897.0176391601562	318.3466796875	705.6066284179688	1028.793823242188	129.4586029052734	908.8226928710938	958.7806396484375	104.7891311645508	885.2958984375	1029.59814453125	104.5304565429688	800.88671875	850.5067138671875	40.94570922851562	720.2749633789062	454.0820007324219	440.5444030761719	778.2894287109375	462.3458862304688	694.7279663085938	859.234130859375	379.5045471191406	41.07605743408203	676.1105346679688	435.0195617675781	294.5813598632812	755.2378540039062	591.4277954101562	42.38700103759766	738.6228637695312	550.4819946289062	44.34905242919922	677.6546020507812	483.6428527832031	46.47368621826172	761.2425537109375	342.2846984863281	31.84305572509766	603.9224243164062	
495	4.94	429.4369506835938	937.7130737304688	667.216064453125	517.4817504882812	928.3478393554688	555.082275390625	462.9847412109375	1032.991333007812	635.4757690429688	683.2374267578125	1229.920532226562	776.747314453125	442.8762512207031	1156.489379882812	624.0531616210938	484.6641235351562	1425.294677734375	669.6251220703125	651.3013305664062	1342.336059570312	752.3848266601562	383.5837097167969	1304.878784179688	721.4625244140625	512.246826171875	1378.100341796875	566.1943359375	642.343017578125	1396.0283203125	555.4942626953125	694.9742431640625	1278.121459960938	471.39599609375	753.8622436523438	1068.142456054688	464.9302673339844	655.43310546875	1037.307006835938	476.8186340332031	837.0960083007812	904.1882934570312	585.9044799804688	838.532958984375	870.85986328125	519.628173828125	794.32568359375	989.6365966796875	484.7899780273438	885.4014282226562	748.7613525390625	629.404541015625	864.0894165039062	797.5022583007812	545.378662109375	877.596923828125	826.3331298828125	608.7203979492188	466.8278198242188	1391.581420898438	846.5698852539062	420.4490051269531	1327.526245117188	907.536865234375	438.81982421875	1041.295532226562	974.8878173828125	408.5625305175781	1016.189636230469	917.913330078125	587.2745361328125	868.7557983398438	983.8480834960938	510.4219970703125	836.2814331054688	1010.35791015625	449.9953002929688	984.527587890625	987.7682495117188	623.9365844726562	715.6124877929688	1005.181457519531	619.1957397460938	776.4545288085938	1010.135864257812	547.164794921875	756.9505004882812	1022.967224121094	511.0309448242188	1621.2578125	780.7608032226562	706.8939208984375	1640.017578125	717.9345703125	639.70068359375	1643.353515625	830.0824584960938	590.2273559570312	1621.626708984375	620.94921875	713.6312255859375	843.2515869140625	558.28271484375	431.7517395019531	833.93115234375	849.4234619140625	552.82958984375	874.7298583984375	866.6160278320312	719.5550537109375	889.167236328125	678.772705078125	857.4834594726562	468.1217651367188	699.5437622070312	826.3641357421875	616.0961303710938	659.5162963867188	934.7951049804688	58.00867080688477	729.9749145507812	905.9970703125	320.0884094238281	712.85498046875	1040.237548828125	134.2001953125	919.7257690429688	970.6168823242188	108.7282257080078	895.9373168945312	1041.897705078125	108.5830993652344	811.9468383789062	863.9161987304688	42.49386215209961	730.9974365234375	456.9713745117188	439.7880859375	779.8045043945312	466.1890869140625	693.6962890625	861.1769409179688	379.5744018554688	41.23160552978516	676.0396118164062	436.9527587890625	293.9936218261719	756.1892700195312	591.4762573242188	42.28683853149414	738.7260131835938	550.56640625	44.28326034545898	677.593994140625	483.6361083984375	46.44427871704102	761.3170776367188	342.2431640625	32.20116424560547	603.8809204101562	
